<svg t="1619601756763" class="icon" viewBox="0 0 1024 1024" version="1.1" xmlns="http://www.w3.org/2000/svg" p-id="7072" width="200" height="200"><path d="M512 512m-501.76 0a501.76 501.76 0 1 0 1003.52 0 501.76 501.76 0 1 0-1003.52 0Z" fill="#8CEEF9" p-id="7073"></path><path d="M512 1024c-136.8064 0-265.4208-53.248-362.0864-149.9136C53.248 777.4208 0 648.8064 0 512S53.248 246.5792 149.9136 149.9136C246.5792 53.248 375.1936 0 512 0s265.4208 53.248 362.0864 149.9136C970.752 246.5792 1024 375.1936 1024 512s-53.248 265.4208-149.9136 362.0864C777.4208 970.752 648.8064 1024 512 1024z m0-1003.52C241.0496 20.48 20.48 241.0496 20.48 512s220.5696 491.52 491.52 491.52 491.52-220.5696 491.52-491.52S782.9504 20.48 512 20.48z" fill="#1C1D21" p-id="7074"></path><path d="M778.8544 469.4016h-12.6976c-10.0352 0-18.8416-6.9632-21.2992-16.5888-5.7344-22.7328-14.7456-44.032-26.4192-63.6928-5.12-8.6016-3.6864-19.456 3.2768-26.624l9.0112-9.0112c8.6016-8.6016 8.6016-22.3232 0-30.9248l-29.2864-29.2864c-8.6016-8.6016-22.3232-8.6016-30.9248 0l-9.0112 9.0112c-6.9632 6.9632-18.0224 8.3968-26.624 3.2768-19.6608-11.6736-40.96-20.6848-63.6928-26.4192-9.8304-2.4576-16.5888-11.264-16.5888-21.2992v-12.6976c0-12.0832-9.8304-21.9136-21.9136-21.9136h-41.3696c-12.0832 0-21.9136 9.8304-21.9136 21.9136v12.6976c0 10.0352-6.9632 18.8416-16.5888 21.2992-22.7328 5.7344-44.032 14.7456-63.6928 26.4192-8.6016 5.12-19.456 3.6864-26.624-3.2768l-9.0112-9.0112c-8.6016-8.6016-22.3232-8.6016-30.9248 0l-29.2864 29.2864c-8.6016 8.6016-8.6016 22.3232 0 30.9248l9.0112 9.0112c6.9632 6.9632 8.3968 18.0224 3.2768 26.624-11.6736 19.6608-20.6848 40.96-26.4192 63.6928-2.4576 9.8304-11.264 16.5888-21.2992 16.5888h-12.6976c-12.0832 0-21.9136 9.8304-21.9136 21.9136v41.3696c0 12.0832 9.8304 21.9136 21.9136 21.9136h12.6976c10.0352 0 18.8416 6.9632 21.2992 16.5888 5.7344 22.7328 14.7456 44.032 26.4192 63.6928 5.12 8.6016 3.6864 19.456-3.2768 26.624l-9.0112 9.0112c-8.6016 8.6016-8.6016 22.3232 0 30.9248l29.2864 29.2864c8.6016 8.6016 22.3232 8.6016 30.9248 0l9.0112-9.0112c6.9632-6.9632 18.0224-8.3968 26.624-3.2768 19.6608 11.6736 40.96 20.6848 63.6928 26.4192 9.8304 2.4576 16.5888 11.264 16.5888 21.2992v12.6976c0 12.0832 9.8304 21.9136 21.9136 21.9136h41.3696c12.0832 0 21.9136-9.8304 21.9136-21.9136v-12.6976c0-10.0352 6.9632-18.8416 16.5888-21.2992 22.7328-5.7344 44.032-14.7456 63.6928-26.4192 8.6016-5.12 19.456-3.6864 26.624 3.2768l9.0112 9.0112c8.6016 8.6016 22.3232 8.6016 30.9248 0l29.2864-29.2864c8.6016-8.6016 8.6016-22.3232 0-30.9248l-9.0112-9.0112c-6.9632-6.9632-8.3968-18.0224-3.2768-26.624 11.6736-19.6608 20.6848-40.96 26.4192-63.6928 2.4576-9.8304 11.264-16.5888 21.2992-16.5888h12.6976c12.0832 0 21.9136-9.8304 21.9136-21.9136v-41.3696c0-12.0832-9.8304-21.9136-21.9136-21.9136zM512 694.272c-100.7616 0-182.272-81.7152-182.272-182.272s81.7152-182.272 182.272-182.272 182.272 81.7152 182.272 182.272-81.5104 182.272-182.272 182.272z" fill="#E0E0E0" p-id="7075"></path><path d="M512 512m-182.272 0a182.272 182.272 0 1 0 364.544 0 182.272 182.272 0 1 0-364.544 0Z" fill="#508DEF" p-id="7076"></path><path d="M371.712 504.4224h-1.2288c-5.5296-0.6144-9.6256-5.7344-8.8064-11.4688 0.4096-2.8672 0.8192-5.7344 1.2288-8.3968 1.024-5.5296 6.3488-9.216 11.8784-8.192 5.5296 1.024 9.216 6.3488 8.192 11.8784l-1.2288 7.3728c-0.4096 4.9152-4.9152 8.8064-10.0352 8.8064zM408.3712 618.0864c-2.6624 0-5.5296-1.024-7.5776-3.2768-20.8896-22.528-34.2016-50.5856-38.7072-80.6912-0.8192-5.5296 3.072-10.8544 8.6016-11.6736 5.5296-0.8192 10.8544 3.072 11.6736 8.6016 3.8912 26.2144 15.36 50.176 33.5872 69.8368 3.8912 4.096 3.6864 10.6496-0.6144 14.5408-2.048 1.8432-4.5056 2.6624-6.9632 2.6624z" fill="#508DEF" p-id="7077"></path><path d="M532.6848 811.008h-41.3696c-17.6128 0-32.1536-14.336-32.1536-32.1536v-12.6976c0-5.3248-3.6864-10.0352-9.0112-11.264-23.3472-5.9392-45.6704-15.1552-66.3552-27.648-4.5056-2.6624-10.24-2.048-14.1312 1.8432l-9.0112 9.0112c-6.144 6.144-14.1312 9.4208-22.7328 9.4208s-16.5888-3.2768-22.7328-9.4208l-29.2864-29.2864c-12.4928-12.4928-12.4928-32.9728 0-45.4656l9.0112-9.0112c3.6864-3.6864 4.5056-9.6256 1.8432-14.1312-12.288-20.6848-21.7088-43.008-27.648-66.3552-1.4336-5.3248-5.9392-9.0112-11.264-9.0112h-12.6976c-17.6128 0-32.1536-14.336-32.1536-32.1536v-41.3696c0-17.6128 14.336-32.1536 32.1536-32.1536h12.6976c5.3248 0 10.0352-3.6864 11.264-9.0112 5.9392-23.3472 15.1552-45.6704 27.648-66.3552 2.6624-4.5056 2.048-10.24-1.8432-14.1312l-9.0112-9.0112c-12.4928-12.4928-12.4928-32.9728 0-45.4656l29.2864-29.2864c6.144-6.144 14.1312-9.4208 22.7328-9.4208s16.5888 3.2768 22.7328 9.4208l9.0112 9.0112c3.6864 3.6864 9.6256 4.5056 14.1312 1.8432 20.6848-12.288 43.008-21.7088 66.3552-27.648 5.3248-1.4336 9.0112-5.9392 9.0112-11.264v-12.6976c0-17.6128 14.336-32.1536 32.1536-32.1536h41.3696c17.6128 0 32.1536 14.336 32.1536 32.1536v12.6976c0 5.3248 3.6864 10.0352 9.0112 11.264 23.3472 5.9392 45.6704 15.1552 66.3552 27.648 4.5056 2.6624 10.24 2.048 14.1312-1.8432l9.0112-9.0112c6.144-6.144 14.1312-9.4208 22.7328-9.4208s16.5888 3.2768 22.7328 9.4208l29.2864 29.2864c12.4928 12.4928 12.4928 32.9728 0 45.4656l-9.0112 9.0112c-3.6864 3.6864-4.5056 9.6256-1.8432 14.1312 12.288 20.6848 21.7088 43.008 27.648 66.3552 1.4336 5.3248 5.9392 9.0112 11.264 9.0112h12.6976c17.6128 0 32.1536 14.336 32.1536 32.1536v41.3696c0 17.6128-14.336 32.1536-32.1536 32.1536h-12.6976c-5.3248 0-10.0352 3.6864-11.264 9.0112-5.9392 23.3472-15.1552 45.6704-27.648 66.3552-2.6624 4.5056-2.048 10.24 1.8432 14.1312l9.0112 9.0112c12.4928 12.4928 12.4928 32.9728 0 45.4656l-29.2864 29.2864c-6.144 6.144-14.1312 9.4208-22.7328 9.4208s-16.5888-3.2768-22.7328-9.4208l-9.0112-9.0112c-3.6864-3.6864-9.6256-4.5056-14.1312-1.8432-20.6848 12.288-43.008 21.7088-66.3552 27.648-5.3248 1.4336-9.0112 5.9392-9.0112 11.264v12.6976c0 17.8176-14.336 32.1536-32.1536 32.1536z m-154.8288-105.8816c5.5296 0 11.264 1.4336 16.384 4.5056 19.0464 11.4688 39.5264 19.8656 61.0304 25.3952 14.336 3.6864 24.3712 16.384 24.3712 31.1296v12.6976c0 6.3488 5.12 11.6736 11.6736 11.6736h41.3696c6.3488 0 11.6736-5.12 11.6736-11.6736v-12.6976c0-14.7456 10.0352-27.4432 24.3712-31.1296 21.504-5.5296 41.984-13.9264 61.0304-25.3952 12.6976-7.5776 28.672-5.5296 39.1168 4.9152l9.0112 9.0112c2.2528 2.2528 5.12 3.4816 8.192 3.4816s5.9392-1.2288 8.192-3.4816l29.2864-29.2864c4.5056-4.5056 4.5056-11.8784 0-16.384l-9.0112-9.0112c-10.4448-10.4448-12.4928-26.4192-4.9152-39.1168 11.4688-19.0464 19.8656-39.5264 25.3952-61.0304 3.6864-14.336 16.384-24.3712 31.1296-24.3712h12.6976c6.3488 0 11.6736-5.12 11.6736-11.6736v-41.3696c0-6.3488-5.12-11.6736-11.6736-11.6736h-12.6976c-14.7456 0-27.4432-10.0352-31.1296-24.3712-5.5296-21.504-13.9264-41.984-25.3952-61.0304-7.5776-12.6976-5.5296-28.672 4.9152-39.1168l9.0112-9.0112c4.5056-4.5056 4.5056-11.8784 0-16.384L694.272 300.4416c-2.2528-2.2528-5.12-3.4816-8.192-3.4816s-5.9392 1.2288-8.192 3.4816l-9.0112 9.0112c-10.4448 10.4448-26.4192 12.4928-39.1168 4.9152-19.0464-11.4688-39.5264-19.8656-61.0304-25.3952-14.336-3.6864-24.3712-16.384-24.3712-31.1296v-12.6976c0-6.3488-5.12-11.6736-11.6736-11.6736h-41.3696c-6.3488 0-11.6736 5.12-11.6736 11.6736v12.6976c0 14.7456-10.0352 27.4432-24.3712 31.1296-21.504 5.5296-41.984 13.9264-61.0304 25.3952-12.6976 7.5776-28.672 5.5296-39.1168-4.9152l-9.0112-9.0112c-2.2528-2.2528-5.12-3.4816-8.192-3.4816s-5.9392 1.2288-8.192 3.4816L300.4416 329.728c-4.5056 4.5056-4.5056 11.8784 0 16.384l9.0112 9.0112c10.4448 10.4448 12.4928 26.4192 4.9152 39.1168-11.4688 19.0464-19.8656 39.5264-25.3952 61.0304-3.6864 14.336-16.384 24.3712-31.1296 24.3712h-12.6976c-6.3488 0-11.6736 5.12-11.6736 11.6736v41.3696c0 6.3488 5.12 11.6736 11.6736 11.6736h12.6976c14.7456 0 27.4432 10.0352 31.1296 24.3712 5.5296 21.504 13.9264 41.984 25.3952 61.0304 7.5776 12.6976 5.5296 28.672-4.9152 39.1168l-9.0112 9.0112c-4.5056 4.5056-4.5056 11.8784 0 16.384l29.2864 29.2864c2.2528 2.2528 5.12 3.4816 8.192 3.4816s5.9392-1.2288 8.192-3.4816l9.0112-9.0112c6.3488-6.144 14.5408-9.4208 22.7328-9.4208z" fill="#1C1D21" p-id="7078"></path><path d="M448.3072 351.4368c-4.096 0-7.9872-2.4576-9.6256-6.7584-2.048-5.3248 0.6144-11.264 5.9392-13.1072 2.2528-0.8192 4.5056-1.6384 6.9632-2.4576 5.3248-1.8432 11.264 1.2288 12.9024 6.5536 1.8432 5.3248-1.2288 11.264-6.5536 12.9024-2.048 0.6144-4.096 1.4336-6.144 2.2528-1.2288 0.4096-2.4576 0.6144-3.4816 0.6144zM402.6368 376.4224c-3.072 0-6.144-1.4336-8.192-4.096-3.4816-4.5056-2.4576-10.8544 2.048-14.336 5.3248-3.8912 10.8544-7.7824 16.5888-11.264 4.9152-2.8672 11.0592-1.4336 14.1312 3.4816 2.8672 4.9152 1.4336 11.0592-3.4816 14.1312-5.12 3.072-10.0352 6.3488-14.7456 10.0352-2.048 1.2288-4.096 2.048-6.3488 2.048z" fill="#1C1D21" p-id="7079"></path><path d="M512 704.512c-106.0864 0-192.512-86.4256-192.512-192.512 0-46.4896 16.7936-91.3408 47.3088-126.3616 3.6864-4.3008 10.24-4.7104 14.5408-1.024 4.3008 3.6864 4.7104 10.24 1.024 14.5408-27.4432 31.1296-42.3936 71.2704-42.3936 112.8448 0 94.8224 77.2096 172.032 172.032 172.032s172.032-77.2096 172.032-172.032-77.2096-172.032-172.032-172.032c-5.9392 0-11.8784 0.4096-17.8176 0.8192-5.5296 0.6144-10.6496-3.4816-11.264-9.216s3.4816-10.6496 9.216-11.264c6.5536-0.6144 13.312-1.024 19.8656-1.024 106.0864 0 192.512 86.4256 192.512 192.512S618.0864 704.512 512 704.512z" fill="#1C1D21" p-id="7080"></path><path d="M589.2096 644.5056l-32.3584-20.0704c-12.6976-7.9872-20.6848-21.9136-20.6848-36.864v-4.096c0-7.3728 4.3008-13.7216 10.8544-16.7936 28.0576-13.1072 47.5136-41.7792 47.5136-74.752v-38.2976c0-45.6704-37.0688-82.5344-82.5344-82.5344-45.6704 0-82.5344 37.0688-82.5344 82.5344v38.2976c0 32.9728 19.456 61.6448 47.5136 74.752 6.5536 3.072 10.8544 9.6256 10.8544 16.7936v4.096c0 14.9504-7.7824 29.0816-20.6848 36.864l-32.3584 20.0704c-8.8064 5.5296-16.384 12.288-22.7328 20.0704 28.672 18.8416 62.8736 29.696 99.7376 29.696 36.864 0 71.0656-10.8544 99.7376-29.696-5.9392-7.7824-13.5168-14.7456-22.3232-20.0704z" fill="#FFC5B3" p-id="7081"></path><path d="M416.5632 503.1936h12.9024V446.464h-12.9024c-14.5408 0-26.4192 11.8784-26.4192 26.4192v3.8912c0 14.5408 11.8784 26.4192 26.4192 26.4192zM607.232 446.464h-12.9024v56.5248h12.9024c14.5408 0 26.4192-11.8784 26.4192-26.4192v-3.8912c0-14.336-11.8784-26.2144-26.4192-26.2144z" fill="#FFC5B3" p-id="7082"></path><path d="M429.4656 513.4336h-12.9024c-20.2752 0-36.6592-16.384-36.6592-36.6592v-3.8912c0-20.2752 16.384-36.6592 36.6592-36.6592h12.9024c5.7344 0 10.24 4.5056 10.24 10.24v56.5248c0 5.7344-4.5056 10.4448-10.24 10.4448z m-12.9024-56.7296c-8.8064 0-16.1792 7.168-16.1792 16.1792v3.8912c0 8.8064 7.168 16.1792 16.1792 16.1792h2.6624V456.704h-2.6624zM607.232 513.4336h-12.9024c-5.7344 0-10.24-4.5056-10.24-10.24V446.464c0-5.7344 4.5056-10.24 10.24-10.24h12.9024c20.2752 0 36.6592 16.384 36.6592 36.6592v3.8912c0 20.2752-16.5888 36.6592-36.6592 36.6592z m-2.6624-20.48h2.6624c8.8064 0 16.1792-7.168 16.1792-16.1792v-3.8912c0-8.8064-7.168-16.1792-16.1792-16.1792h-2.6624v36.2496z" fill="#1C1D21" p-id="7083"></path><path d="M512 704.512c-37.6832 0-74.1376-10.8544-105.472-31.3344-2.4576-1.6384-4.096-4.096-4.5056-6.9632-0.4096-2.8672 0.4096-5.7344 2.048-7.9872 7.168-9.0112 15.7696-16.5888 25.1904-22.528l32.3584-20.0704c9.8304-6.144 15.7696-16.5888 15.7696-28.2624v-4.096c0-3.2768-1.8432-6.144-5.12-7.5776-32.3584-15.1552-53.248-48.128-53.248-83.968v-38.2976c0-51.2 41.5744-92.7744 92.7744-92.7744 24.7808 0 48.128 9.6256 65.536 27.2384 17.6128 17.6128 27.2384 40.7552 27.2384 65.536v38.2976c0 35.84-20.8896 68.8128-53.248 83.968-3.072 1.4336-5.12 4.3008-5.12 7.5776v4.096c0 11.6736 5.9392 22.1184 15.7696 28.2624l32.3584 20.0704c9.6256 5.9392 18.0224 13.5168 25.1904 22.528 1.8432 2.2528 2.6624 5.12 2.048 7.9872-0.4096 2.8672-2.048 5.3248-4.5056 6.9632-30.9248 20.48-67.3792 31.3344-105.0624 31.3344z m-83.7632-42.1888c25.6 14.336 54.272 21.7088 83.7632 21.7088 29.4912 0 58.1632-7.5776 83.7632-21.7088-3.6864-3.4816-7.7824-6.5536-12.0832-9.216l-32.3584-20.0704c-15.9744-9.8304-25.3952-26.8288-25.3952-45.6704v-4.096c0-11.0592 6.5536-21.2992 16.7936-26.0096 25.1904-11.8784 41.5744-37.6832 41.5744-65.536v-38.2976c0-19.2512-7.5776-37.4784-21.0944-51.2-13.7216-13.7216-31.744-21.0944-51.2-21.0944-39.936 0-72.2944 32.3584-72.2944 72.2944v38.2976c0 27.8528 16.384 53.6576 41.5744 65.536 10.24 4.7104 16.7936 14.9504 16.7936 26.0096v4.096c0 18.6368-9.4208 35.84-25.3952 45.6704l-32.3584 20.0704c-4.3008 2.6624-8.3968 5.7344-12.0832 9.216z" fill="#1C1D21" p-id="7084"></path><path d="M589.2096 644.5056l-22.1184-13.5168c-17.2032 5.9392-35.84 9.216-55.0912 9.216-19.2512 0-37.888-3.2768-55.0912-9.216l-22.1184 13.7216c-8.8064 5.5296-16.384 12.288-22.7328 20.0704 28.672 18.8416 62.8736 29.696 99.7376 29.696 36.864 0 71.0656-10.8544 99.7376-29.696-5.9392-7.9872-13.5168-14.9504-22.3232-20.2752z" fill="#AAADAD" p-id="7085"></path><path d="M429.6704 446.464H464.896c26.2144 0 47.3088-21.0944 47.3088-47.3088l-0.4096-28.2624c-43.008 0.2048-78.4384 33.3824-82.1248 75.5712z" fill="#FF8939" p-id="7086"></path><path d="M512.4096 371.0976L512 399.36c0 26.2144 21.0944 47.3088 47.3088 47.3088h35.0208c-3.6864-42.3936-38.912-75.5712-81.92-75.5712z" fill="#FF8939" p-id="7087"></path><path d="M465.1008 456.704h-35.2256c-2.8672 0-5.5296-1.2288-7.5776-3.2768s-2.8672-4.9152-2.6624-7.7824c4.096-47.5136 44.6464-84.992 92.3648-84.992 5.5296 0 10.24 4.5056 10.24 10.0352l0.4096 28.2624c0 31.9488-25.8048 57.7536-57.5488 57.7536z m-23.3472-20.48h23.3472c20.48 0 37.0688-16.5888 37.0688-37.0688l-0.2048-17.2032c-29.0816 4.096-53.0432 26.0096-60.2112 54.272z" fill="#1C1D21" p-id="7088"></path><path d="M594.3296 456.704h-35.0208c-31.744 0-57.5488-25.8048-57.5488-57.5488l0.4096-28.2624c0-5.5296 4.7104-10.0352 10.24-10.0352 48.3328 0.2048 88.064 36.6592 92.16 84.7872 0.2048 2.8672-0.8192 5.7344-2.6624 7.7824s-4.7104 3.2768-7.5776 3.2768z m-71.8848-74.752l-0.2048 17.408c0 20.2752 16.5888 36.864 37.0688 36.864h22.9376c-6.9632-28.672-30.5152-49.9712-59.8016-54.272zM512.4096 556.4416c-12.0832 0-23.552-6.5536-29.696-16.9984-2.8672-4.9152-1.2288-11.0592 3.6864-13.9264 4.9152-2.8672 11.0592-1.2288 13.9264 3.6864 2.4576 4.3008 6.9632 6.7584 11.8784 6.7584s9.4208-2.6624 11.8784-6.7584c2.8672-4.9152 9.0112-6.5536 13.9264-3.6864 4.9152 2.8672 6.5536 9.0112 3.6864 13.9264-5.9392 10.4448-17.2032 16.9984-29.2864 16.9984zM512 704.512c-37.6832 0-74.1376-10.8544-105.472-31.3344-2.4576-1.6384-4.096-4.096-4.5056-6.9632-0.4096-2.8672 0.4096-5.7344 2.048-7.9872 7.168-9.0112 15.7696-16.5888 25.1904-22.528l22.1184-13.7216c2.6624-1.6384 5.7344-2.048 8.8064-1.024 16.5888 5.7344 33.9968 8.6016 51.8144 8.6016 17.6128 0 35.0208-2.8672 51.6096-8.6016 2.8672-1.024 6.144-0.6144 8.8064 1.024l22.1184 13.5168c9.6256 5.9392 18.0224 13.5168 25.1904 22.528 1.8432 2.2528 2.6624 5.12 2.048 7.9872-0.4096 2.8672-2.048 5.3248-4.5056 6.9632-31.1296 20.6848-67.584 31.5392-105.2672 31.5392z m-83.7632-42.1888c25.6 14.336 54.272 21.7088 83.7632 21.7088 29.4912 0 58.1632-7.5776 83.7632-21.7088-3.6864-3.4816-7.7824-6.5536-12.0832-9.216l-18.0224-11.0592c-17.408 5.5296-35.4304 8.192-53.6576 8.192-18.432 0-36.4544-2.8672-53.8624-8.192l-18.0224 11.0592c-4.096 2.6624-8.192 5.7344-11.8784 9.216z" fill="#1C1D21" p-id="7089"></path><path d="M512 704.512c-5.7344 0-10.24-4.5056-10.24-10.24v-54.272c0-5.7344 4.5056-10.24 10.24-10.24s10.24 4.5056 10.24 10.24V694.272c0 5.7344-4.5056 10.24-10.24 10.24z" fill="#1C1D21" p-id="7090"></path><path d="M512 129.4336m-51.2 0a51.2 51.2 0 1 0 102.4 0 51.2 51.2 0 1 0-102.4 0Z" fill="#FF3E63" p-id="7091"></path><path d="M512 894.5664m-51.2 0a51.2 51.2 0 1 0 102.4 0 51.2 51.2 0 1 0-102.4 0Z" fill="#0ABFB2" p-id="7092"></path><path d="M746.244906 277.632518a51.2 51.2 0 1 0 72.40647-72.408999 51.2 51.2 0 1 0-72.40647 72.408999Z" fill="#0ABFB2" p-id="7093"></path><path d="M205.333791 818.777535a51.2 51.2 0 1 0 72.40647-72.408998 51.2 51.2 0 1 0-72.40647 72.408998Z" fill="#FF9E5C" p-id="7094"></path><path d="M894.5664 512m-51.2 0a51.2 51.2 0 1 0 102.4 0 51.2 51.2 0 1 0-102.4 0Z" fill="#FF9E5C" p-id="7095"></path><path d="M129.4336 512m-51.2 0a51.2 51.2 0 1 0 102.4 0 51.2 51.2 0 1 0-102.4 0Z" fill="#0ABFB2" p-id="7096"></path><path d="M746.361857 818.660584a51.2 51.2 0 1 0 72.40647-72.408998 51.2 51.2 0 1 0-72.40647 72.408998Z" fill="#FF3E63" p-id="7097"></path><path d="M205.21624 277.748021a51.2 51.2 0 1 0 72.40647-72.408999 51.2 51.2 0 1 0-72.40647 72.408999Z" fill="#FF9E5C" p-id="7098"></path><path d="M512 190.8736c-33.792 0-61.44-27.648-61.44-61.44s27.648-61.44 61.44-61.44 61.44 27.648 61.44 61.44-27.648 61.44-61.44 61.44z m0-102.4c-22.528 0-40.96 18.432-40.96 40.96s18.432 40.96 40.96 40.96 40.96-18.432 40.96-40.96-18.432-40.96-40.96-40.96zM512 956.0064c-33.792 0-61.44-27.648-61.44-61.44s27.648-61.44 61.44-61.44 61.44 27.648 61.44 61.44-27.648 61.44-61.44 61.44z m0-102.4c-22.528 0-40.96 18.432-40.96 40.96s18.432 40.96 40.96 40.96 40.96-18.432 40.96-40.96-18.432-40.96-40.96-40.96zM782.5408 302.8992c-16.384 0-31.744-6.3488-43.4176-18.0224-11.6736-11.6736-18.0224-27.0336-18.0224-43.4176s6.3488-31.744 18.0224-43.4176c23.9616-23.9616 62.8736-23.9616 86.8352 0 11.6736 11.6736 18.0224 27.0336 18.0224 43.4176s-6.3488 31.744-18.0224 43.4176c-11.6736 11.6736-27.0336 18.0224-43.4176 18.0224z m0-102.1952c-10.4448 0-20.8896 3.8912-28.8768 11.8784-7.7824 7.7824-12.0832 18.0224-12.0832 28.8768 0 10.8544 4.3008 21.2992 12.0832 28.8768 7.7824 7.7824 18.0224 12.0832 28.8768 12.0832 10.8544 0 21.2992-4.3008 28.8768-12.0832 7.7824-7.7824 12.0832-18.0224 12.0832-28.8768 0-10.8544-4.3008-21.2992-12.0832-28.8768-7.9872-7.9872-18.432-11.8784-28.8768-11.8784zM241.4592 843.776c-15.7696 0-31.5392-5.9392-43.4176-18.0224-11.6736-11.6736-18.0224-27.0336-18.0224-43.4176s6.3488-31.744 18.0224-43.4176c11.6736-11.6736 27.0336-18.0224 43.4176-18.0224s31.744 6.3488 43.4176 18.0224c11.6736 11.6736 18.0224 27.0336 18.0224 43.4176s-6.3488 31.744-18.0224 43.4176c-11.8784 12.0832-27.648 18.0224-43.4176 18.0224z m0-102.1952c-10.8544 0-21.2992 4.3008-28.8768 12.0832-7.7824 7.7824-12.0832 18.0224-12.0832 28.8768 0 10.8544 4.3008 21.2992 12.0832 28.8768 15.9744 15.9744 41.984 15.9744 57.9584 0 7.7824-7.7824 12.0832-18.0224 12.0832-28.8768 0-10.8544-4.3008-21.2992-12.0832-28.8768-7.7824-7.9872-18.0224-12.0832-29.0816-12.0832z m36.2496 77.0048zM894.5664 573.44c-33.792 0-61.44-27.648-61.44-61.44s27.648-61.44 61.44-61.44 61.44 27.648 61.44 61.44-27.648 61.44-61.44 61.44z m0-102.4c-22.528 0-40.96 18.432-40.96 40.96s18.432 40.96 40.96 40.96 40.96-18.432 40.96-40.96-18.432-40.96-40.96-40.96zM129.4336 573.44c-33.792 0-61.44-27.648-61.44-61.44s27.648-61.44 61.44-61.44 61.44 27.648 61.44 61.44-27.4432 61.44-61.44 61.44z m0-102.4c-22.528 0-40.96 18.432-40.96 40.96s18.432 40.96 40.96 40.96 40.96-18.432 40.96-40.96-18.2272-40.96-40.96-40.96zM782.5408 843.776c-15.7696 0-31.5392-5.9392-43.4176-18.0224-11.6736-11.6736-18.0224-27.0336-18.0224-43.4176s6.3488-31.744 18.0224-43.4176c11.6736-11.6736 27.0336-18.0224 43.4176-18.0224s31.744 6.3488 43.4176 18.0224c11.6736 11.6736 18.0224 27.0336 18.0224 43.4176s-6.3488 31.744-18.0224 43.4176c-12.0832 12.0832-27.8528 18.0224-43.4176 18.0224z m-29.0816-32.3584c15.9744 15.9744 41.984 15.9744 57.9584 0 7.7824-7.7824 12.0832-18.0224 12.0832-28.8768 0-10.8544-4.3008-21.2992-12.0832-28.8768-7.7824-7.7824-18.0224-12.0832-28.8768-12.0832-10.8544 0-21.2992 4.3008-28.8768 12.0832-7.7824 7.7824-12.0832 18.0224-12.0832 28.8768 0 10.8544 4.096 21.0944 11.8784 28.8768zM241.4592 302.8992c-16.384 0-31.744-6.3488-43.4176-18.0224-11.6736-11.6736-18.0224-27.0336-18.0224-43.4176s6.3488-31.744 18.0224-43.4176c23.9616-23.9616 62.8736-23.9616 86.8352 0 11.6736 11.6736 18.0224 27.0336 18.0224 43.4176s-6.3488 31.744-18.0224 43.4176c-11.4688 11.6736-26.8288 18.0224-43.4176 18.0224z m0-102.1952c-10.4448 0-20.8896 3.8912-28.8768 11.8784-7.7824 7.7824-12.0832 18.0224-12.0832 28.8768 0 10.8544 4.3008 21.2992 12.0832 28.8768 7.7824 7.7824 18.0224 12.0832 28.8768 12.0832 10.8544 0 21.2992-4.3008 28.8768-12.0832 7.7824-7.7824 12.0832-18.0224 12.0832-28.8768 0-10.8544-4.3008-21.2992-12.0832-28.8768-7.7824-7.9872-18.2272-11.8784-28.8768-11.8784z" fill="#1C1D21" p-id="7099"></path></svg>