<svg t="1619602078859" class="icon" viewBox="0 0 1024 1024" version="1.1" xmlns="http://www.w3.org/2000/svg" p-id="7845" width="200" height="200"><path d="M136 249.5c-1.4 0-2.8-0.7-3.5-2.1L121.6 228c-1.1-1.9-0.4-4.4 1.5-5.4 1.9-1.1 4.4-0.4 5.4 1.5l10.9 19.5c1.1 1.9 0.4 4.4-1.5 5.4-0.6 0.4-1.3 0.5-1.9 0.5z" fill="#00B7EE" p-id="7846"></path><path d="M120.8 245.2c-1.4 0-2.8-0.7-3.5-2.1-1.1-1.9-0.4-4.4 1.6-5.4l19.5-10.9c1.9-1.1 4.4-0.4 5.4 1.6 1.1 1.9 0.4 4.4-1.6 5.4l-19.5 10.9c-0.6 0.3-1.3 0.5-1.9 0.5z" fill="#00B7EE" p-id="7847"></path><path d="M845.4 88.1c-1.8 0-3.4-1.2-3.9-3l-9.6-36c-0.6-2.1 0.7-4.3 2.8-4.9 2.1-0.6 4.3 0.7 4.9 2.8l9.6 36c0.6 2.1-0.7 4.3-2.8 4.9-0.3 0.2-0.7 0.2-1 0.2z" fill="#ACD598" p-id="7848"></path><path d="M822.6 75c-1.8 0-3.4-1.2-3.9-3-0.6-2.1 0.7-4.3 2.8-4.9l36-9.7c2.1-0.6 4.3 0.7 4.9 2.8 0.6 2.1-0.7 4.3-2.8 4.9l-36 9.7c-0.3 0.1-0.7 0.2-1 0.2z" fill="#ACD598" p-id="7849"></path><path d="M966.4 827.4c-0.8 0-1.6-0.2-2.3-0.8l-24.7-17.8c-1.8-1.3-2.2-3.8-0.9-5.6s3.8-2.2 5.6-0.9l24.7 17.8c1.8 1.3 2.2 3.8 0.9 5.6-0.8 1.2-2 1.7-3.3 1.7z" fill="#FFF100" p-id="7850"></path><path d="M945.2 830.9c-0.8 0-1.6-0.2-2.3-0.8-1.8-1.3-2.2-3.8-0.9-5.6l17.7-24.7c1.3-1.8 3.8-2.2 5.6-0.9s2.2 3.8 0.9 5.6l-17.7 24.7c-0.8 1.1-2.1 1.7-3.3 1.7z" fill="#FFF100" p-id="7851"></path><path d="M734.4 128.2c-6.6 0-12-5.4-12-12s5.4-12 12-12 12 5.4 12 12-5.4 12-12 12z m0-19.2c-4 0-7.2 3.2-7.2 7.2s3.2 7.2 7.2 7.2 7.2-3.2 7.2-7.2-3.2-7.2-7.2-7.2z" fill="#EB6877" p-id="7852"></path><path d="M909.7 911.9c-7.3 0-13.2-5.9-13.2-13.2s5.9-13.2 13.2-13.2 13.2 5.9 13.2 13.2-5.9 13.2-13.2 13.2z m0-22c-4.8 0-8.8 4-8.8 8.8s4 8.8 8.8 8.8 8.8-4 8.8-8.8-4-8.8-8.8-8.8z" fill="#7EDDDC" p-id="7853"></path><path d="M967.9 100.4c-9.4 0-17.1-7.7-17.1-17.1s7.7-17.1 17.1-17.1S985 73.9 985 83.3s-7.7 17.1-17.1 17.1z m0-27.4c-5.6 0-10.3 4.6-10.3 10.3s4.6 10.3 10.3 10.3 10.3-4.6 10.3-10.3S973.5 73 967.9 73z" fill="#FF8700" p-id="7854"></path><path d="M929.5 176.2m-8.5 0a8.5 8.5 0 1 0 17 0 8.5 8.5 0 1 0-17 0Z" fill="#D3D462" p-id="7855"></path><path d="M872.1 816.8m-7 0a7 7 0 1 0 14 0 7 7 0 1 0-14 0Z" fill="#A657FF" p-id="7856"></path><path d="M271.9 58.3m-4 0a4 4 0 1 0 8 0 4 4 0 1 0-8 0Z" fill="#FF455C" p-id="7857"></path><path d="M508.861701 56.181433a8 8 0 1 0 5.059128-15.179105 8 8 0 1 0-5.059128 15.179105Z" fill="#F78282" p-id="7858"></path><path d="M152.2 119.7m-6 0a6 6 0 1 0 12 0 6 6 0 1 0-12 0Z" fill="#B4DB61" p-id="7859"></path><path d="M81.9 87.4c-3.6 0-7.2-1.3-10-4.1-5.5-5.4-5.5-14.4-0.1-19.9l0.1-0.1c5.5-5.5 14.4-5.5 19.9 0 2.7 2.7 4.1 6.2 4.1 10s-1.5 7.3-4.1 10c-2.8 2.8-6.3 4.1-9.9 4.1zM75.5 67c-3.5 3.5-3.5 9.2 0 12.7s9.2 3.5 12.7 0c1.7-1.7 2.6-4 2.6-6.3s-1-4.7-2.6-6.3c-3.5-3.6-9.1-3.6-12.7-0.1z m-1.8-1.8z" fill="#FF8A8A" p-id="7860"></path><path d="M379.9 116.3c-4.9 0-9.7-1.9-13.4-5.6-7.4-7.4-7.4-19.4 0-26.9l0.1-0.1c3.6-3.6 8.3-5.5 13.4-5.5s9.8 2 13.4 5.6c7.4 7.4 7.4 19.5 0 26.9-3.7 3.8-8.6 5.6-13.5 5.6z m-7.8-26.7c-4.2 4.3-4.2 11.2 0.1 15.5 4.3 4.3 11.3 4.3 15.6 0 4.3-4.3 4.3-11.3 0-15.6-2.1-2.1-4.8-3.2-7.8-3.2s-5.8 1.2-7.9 3.3z m-2.8-2.9z" fill="#B3D465" p-id="7861"></path><path d="M51.9 179.3m-8 0a8 8 0 1 0 16 0 8 8 0 1 0-16 0Z" fill="#CC9EE1" p-id="7862"></path><path d="M975.4 397.8m-3.5 0a3.5 3.5 0 1 0 7 0 3.5 3.5 0 1 0-7 0Z" fill="#D3A884" p-id="7863"></path><path d="M964.4 610.8m-3.5 0a3.5 3.5 0 1 0 7 0 3.5 3.5 0 1 0-7 0Z" fill="#22B4FF" p-id="7864"></path><path d="M972.4 278.8m-7.5 0a7.5 7.5 0 1 0 15 0 7.5 7.5 0 1 0-15 0Z" fill="#F2ED62" p-id="7865"></path><path d="M675.2 31.2m-8 0a8 8 0 1 0 16 0 8 8 0 1 0-16 0Z" fill="#EBB4BE" p-id="7866"></path><path d="M908.9 359.4c-3.1 0-6.2-1.2-8.6-3.5-4.7-4.7-4.7-12.3-0.1-17.1l0.1-0.1c2.3-2.3 5.3-3.5 8.6-3.5 3.2 0 6.2 1.3 8.6 3.5 4.7 4.7 4.7 12.4 0 17.1-2.4 2.4-5.5 3.6-8.6 3.6z m-5.7-17.8c-3.2 3.2-3.2 8.3 0 11.4 3.1 3.1 8.3 3.1 11.4 0 3.1-3.1 3.1-8.3 0-11.4-1.5-1.5-3.5-2.4-5.7-2.4s-4.2 0.9-5.7 2.4z" fill="#47C1C2" p-id="7867"></path><path d="M122.9 518.3v-41c0-16.6 13.4-30 30-30h647.5c16.6 0 30 13.4 30 30v410c0 16.6-13.4 30-30 30H152.9c-16.6 0-30-13.4-30-30V659.8" fill="#22B4FF" p-id="7868"></path><path d="M780.4 927.3H132.9c-22.1 0-40-17.9-40-40V659.8c0-5.5 4.5-10 10-10s10 4.5 10 10v227.5c0 11 9 20 20 20h647.5c11 0 20-9 20-20v-410c0-11-9-20-20-20H132.9c-11 0-20 9-20 20v41c0 5.5-4.5 10-10 10s-10-4.5-10-10v-41c0-22.1 17.9-40 40-40h647.5c22.1 0 40 17.9 40 40v410c0 22.1-18 40-40 40z" fill="#222222" p-id="7869"></path><path d="M286.9 447.3h330v470h-330v-470z" fill="#FFDF00" p-id="7870"></path><path d="M626.9 927.3h-350v-490h350v490z m-330-20h310v-450h-310v450z" fill="#222222" p-id="7871"></path><path d="M296.9 457.3h16v450h-16v-450z m330 0h16v450h-16v-450z" fill="#FFFFFF" p-id="7872"></path><path d="M102.9 588.3m-16 0a16 16 0 1 0 32 0 16 16 0 1 0-32 0Z" fill="#222222" p-id="7873"></path><path d="M739.5 361.7c-38.4-87.5 61.1-241 119-157.2 50.3 72.8-80.2 245.6-119 157.2z" fill="#EB6877" p-id="7874"></path><path d="M753 410.8h-2.1c-13.1-0.6-31.2-7-43.2-34.2-31.8-72.2 12.1-181.5 69.3-213.6 31.8-17.8 62.9-9.4 85.4 23.1 12.4 17.9 17.2 41.7 13.9 68.9-2.9 23.4-11.6 48.7-25.1 73.2-22.8 41.5-61.9 82.6-98.2 82.6z m-27-42.3c6.4 14.5 14.8 21.8 25.8 22.3h1.2c23.7 0 57.4-30.1 80.7-72.3 20.6-37.4 34.7-88.8 12.3-121.1-16.6-24-36.6-29.7-59.2-17-23.2 13-45.7 43.8-58.7 80.3-14.1 39.5-14.8 78.8-2.1 107.8z" fill="#222222" p-id="7875"></path><path d="M755.2 471.3c35.6 80.8 202.8 108.3 181.9 16.4-18.1-79.8-217.9-98-181.9-16.4z" fill="#EB6877" p-id="7876"></path><path d="M879.4 558.8c-62.1 0-142-38.5-168.2-98.1-12-27.2-4.5-44.9 3.9-54.9 23.8-28.5 82-29.8 129.1-18.4 27.2 6.6 51.7 17.2 70.8 30.8 22.3 15.8 36.6 35.4 41.4 56.6 8.7 38.5-6.1 67.2-40.8 78.6-10.8 3.7-23.1 5.4-36.2 5.4z m-150-106.2c12.8 28.9 42.3 54.9 80.9 71.1 35.7 15 73.7 19.1 99 10.8 24.7-8.2 34-26.7 27.5-55.2-8.7-38.2-56-62.4-97.4-72.4-47.9-11.5-93.8-6.6-109.1 11.8-6.9 8.3-7.3 19.5-0.9 33.9z" fill="#222222" p-id="7877"></path><path d="M643.6 146.4l311.5 537.4c7.8 13.4 3.2 30.6-10.3 38.4l-54.3 31.4c-13.4 7.8-30.6 3.2-38.4-10.3L540.7 205.9c-7.8-13.4-3.2-30.6 10.3-38.4l54.3-31.4c13.4-7.8 30.6-3.2 38.3 10.3z" fill="#358AFE" p-id="7878"></path><path d="M876.5 767.3c-3.3 0-6.6-0.4-9.9-1.3-9.8-2.6-18-8.9-23.1-17.7l-0.4-0.7L516 183.9c-10.5-18.2-4.2-41.6 13.9-52.1l54.3-31.4c8.8-5.1 19.1-6.4 28.9-3.8 9.7 2.6 17.9 8.8 23 17.4l0.2 0.4 327.4 564.3c10.5 18.2 4.3 41.6-13.9 52.1l-54.3 31.4c-5.9 3.4-12.4 5.1-19 5.1z m-15.6-28.8c2.4 4.1 6.3 7 10.8 8.2 4.7 1.2 9.5 0.6 13.7-1.8l54.3-31.4c8.6-5 11.6-16.1 6.6-24.7L619 124.4c-2.4-4.2-6.3-7.2-11-8.4-4.7-1.2-9.5-0.6-13.7 1.8L540 149.2c-8.6 5-11.6 16.1-6.6 24.7l327.4 564.4 0.1 0.2z" fill="#222222" p-id="7879"></path><path d="M730.8 297.1L852 506l-101.4 62.2-121.3-208.9 101.5-62.2z" fill="#FFDF00" p-id="7880"></path><path d="M747 582.1L615.8 355.9l118.5-72.6 131.3 226.2L747 582.1zM642.9 362.7l111.2 191.6 84.4-51.7L727.2 311l-84.3 51.7z" fill="#222222" p-id="7881"></path><path d="M776.1 592.6l-11.9-20.8 85.1-52.3 11.9 20.8-85.1 52.3zM642.2 362.8l85.7-52.4 12.3 22-85.1 51.3-12.9-20.9z" fill="#FFFFFF" p-id="7882"></path><path d="M137.6 371.9c-8.1-7.4-17-8.6-26.7-3.7-9.8 4.9-12.4 2.4-7.9-7.6 4.5-9.9 2.9-18.8-4.8-26.6s-6.1-11 4.8-9.8c10.8 1.2 18.8-3 23.8-12.7s8.6-9.2 10.8 1.5 8.7 16.9 19.4 18.7c10.8 1.8 11.4 5.3 1.9 10.8-9.5 5.4-13.4 13.5-11.8 24.3 1.8 10.8-1.4 12.5-9.5 5.1z" fill="#87FFFE" p-id="7883"></path><path d="M136.3 395c-7 0-13.2-5.7-15.9-8.2-6.8-6.3-13.3-7.1-21.5-3-4.2 2.1-15.3 7.7-22.8 0.5s-2.4-18.6-0.5-22.9c3.8-8.5 2.7-14.9-3.8-21.6-3.3-3.3-12-12.2-7.5-21.6 4.6-9.4 16.9-8 21.5-7.5 9.2 1 14.9-2 19.2-10.3 2.1-4.2 7.8-15.3 18.2-13.8 10.3 1.4 12.8 13.6 13.8 18.2 1.9 9.1 6.5 13.6 15.7 15.2 4.6 0.8 16.9 2.8 18.7 13 1.8 10.3-9 16.4-13 18.7-8.1 4.6-10.9 10.5-9.5 19.7 0.7 4.6 2.6 17-6.6 21.9-2 1.3-4 1.7-6 1.7z m-27.9-33.7c7 0 13.8 2.2 20.2 6.5-0.1-12.1 4.7-22.1 14.3-29.5-11.5-3.6-19.5-11.3-23.5-22.6-7 9.8-16.7 15-28.8 15.4 7.2 9.7 9.1 20.7 5.8 32.3 4-1.5 8-2.1 12-2.1z" fill="#222222" p-id="7884"></path><path d="M300 200.3c-16.9-1.6-29.1 5.3-36.6 20.5s-13.1 14.6-16.9-2c-3.8-16.6-14-26.1-30.9-28.5-16.8-2.4-17.9-8-3.3-16.7 14.6-8.7 20.4-21.4 17.6-38.2s2-19.5 14.8-8.3 26.7 12.8 41.7 4.9 19.2-4.1 12.5 11.5-4 29.3 8.2 41.2 9.8 17.2-7.1 15.6z" fill="#57EBBF" p-id="7885"></path><path d="M235.1 247.4c-0.6 0-1.3 0-2-0.1-11.6-1.6-14.5-16.1-15.8-22.2-2.9-14.2-10.5-21.6-24.7-24-6.2-1-20.6-3.4-22.7-15-2-11.5 10.7-18.8 16.2-21.9 12.6-7.1 17.2-16.7 15-31.1-0.9-6.2-3.1-20.8 7.2-26.3s21.1 4.5 25.8 8.7c10.6 9.8 21.1 11.3 34 4.8 5.6-2.8 18.7-9.4 27.1-1.3s2.4 21.5-0.2 27.3c-6 13.2-4.1 23.7 6 34.1 4.4 4.5 14.7 15 9.5 25.5-5.1 10.5-19.7 8.8-25.9 8.1-14.3-1.6-23.7 3.4-30.3 16.2-2.6 5.3-8.8 17.2-19.2 17.2z m-38.7-66c21.9 3.8 35.9 17.3 40.5 39.1 10.4-19.7 27.5-28.8 49.6-26.5-15.5-16-18.9-35.2-9.8-55.6-19.9 9.8-39.1 7.1-55.6-7.8 3.1 22.2-5.4 39.7-24.7 50.8zM497.4 417.8c-4.2 0-8.1-2.7-9.5-6.9l-48-145c-1.7-5.2 1.1-10.9 6.4-12.6 5.2-1.7 10.9 1.1 12.6 6.4l48 145c1.7 5.2-1.1 10.9-6.4 12.6-1 0.4-2.1 0.5-3.1 0.5zM391.4 411.8c-3.1 0-6.2-1.5-8.2-4.3l-95.5-136c-3.2-4.5-2.1-10.8 2.4-13.9 4.5-3.2 10.8-2.1 13.9 2.4l95.5 136c3.2 4.5 2.1 10.8-2.4 13.9-1.7 1.3-3.7 1.9-5.7 1.9zM270.9 422.3c-1.4 0-2.9-0.3-4.3-1l-63-30c-5-2.4-7.1-8.3-4.7-13.3 2.4-5 8.3-7.1 13.3-4.7l63 30c5 2.4 7.1 8.3 4.7 13.3-1.7 3.6-5.3 5.7-9 5.7z" fill="#222222" p-id="7886"></path><path d="M467.2 206c-8.3-3.6-15.6-2.2-22 4.2s-9.1 5.1-8.2-3.9-2.7-15.5-10.8-19.6c-8.1-4.1-7.7-7.1 1.1-9 8.8-1.9 13.9-7.4 15.3-16.3 1.4-8.9 4.3-9.5 8.9-1.7s11.3 11 20.2 9.5c8.9-1.5 10.4 1.2 4.4 7.9-6 6.8-7 14.1-2.8 22.2 4.3 8.1 2.2 10.3-6.1 6.7z" fill="#87FFFE" p-id="7887"></path><path d="M422.2 230.3c-1.6 0-3.4-0.3-5.1-1.2-8.9-4.2-7.7-15.6-7.3-19.3 0.7-6.7-1.5-10.6-7.4-13.6-3.4-1.7-13.6-6.8-12.3-16.5 1.2-9.7 12.4-12.1 16.1-12.9 6.5-1.4 9.6-4.7 10.6-11.3 0.6-3.7 2.3-15.1 11.9-16.9 9.6-1.8 15.4 8.1 17.3 11.3 3.3 5.8 7.4 7.7 13.9 6.6 3.7-0.6 15-2.5 19.7 6.1s-2.9 17.1-5.4 19.9c-4.4 5-5 9.5-1.9 15.4 1.7 3.3 7 13.5 0.3 20.7-6.7 7.1-17.2 2.5-20.6 1-6.1-2.7-10.5-1.8-15.1 2.9-2.4 2.2-8 7.8-14.7 7.8z m-3.3-46.9c5.9 5 9.5 11.6 10.6 19.4 6.6-4.1 13.9-5.5 21.6-4.1-1.8-7.6-0.9-15 2.8-21.9-7.7-0.6-14.5-3.8-19.9-9.4-3 7.1-8.1 12.6-15.1 16z" fill="#222222" p-id="7888"></path><path d="M387.3 627.3c9 0 16.3 7.4 16.2 16.4 0 9-7.4 16.3-16.4 16.2-9 0-16.2-7.4-16.3-16.3 0.1-9 7.5-16.3 16.5-16.3z m130.2 0c9 0.1 16.3 7.4 16.2 16.4s-7.4 16.3-16.4 16.2-16.2-7.4-16.2-16.3c-0.1-9 7.3-16.3 16.4-16.3zM494.2 699.7c-7.3 23.1-32 36-55.1 28.6-13.7-4.3-24.5-15.2-28.7-28.9 6.3 0.1 62.4 0.3 83.8 0.3z" fill="#222222" p-id="7889"></path><path d="M452.3 733.4c-4.7 0-9.4-0.7-14.1-2.2-14.7-4.6-26.2-16.2-30.7-30.9-0.3-0.9-0.1-1.9 0.5-2.7s1.5-1.2 2.4-1.2c2.3 0 10.7 0 21.7 0.1 20.4 0.1 48.4 0.2 62.2 0.2 1 0 1.9 0.5 2.4 1.2 0.6 0.8 0.7 1.8 0.4 2.7-6.4 20-24.9 32.8-44.8 32.8z m-37.7-30.9c4.6 11 13.9 19.4 25.4 23.1 10.4 3.3 21.5 2.3 31.2-2.7 8.5-4.4 15-11.4 18.7-20.1-14.7 0-39.4-0.1-57.9-0.2-7.3-0.1-13.4-0.1-17.4-0.1z" fill="#222222" p-id="7890"></path><path d="M452.3 710c12.6 0 23.6 3.6 29.5 9.1-16.8 15.1-42.3 15.1-59 0 5.9-5.4 16.9-9.1 29.5-9.1z" fill="#FF1834" p-id="7891"></path></svg>